<?xml version="1.0" encoding="UTF-8"?>
<svg width="494px" height="160px" viewBox="0 0 494 160" version="1.1" xmlns="http://www.w3.org/2000/svg" xmlns:xlink="http://www.w3.org/1999/xlink">
    <title>Artboard Copy 3</title>
    <g id="Artboard-Copy-3" stroke="none" stroke-width="1" fill="none" fill-rule="evenodd">
        <rect fill="#9013FE" x="0" y="0" width="494" height="160"></rect>
        <path d="M65.22,120 L65.22,100.92 C70.34,100.92 75.12,100.36 79.56,99.24 C84,98.12 87.88,96.36 91.2,93.96 C94.52,91.56 97.14,88.42 99.06,84.54 C100.98,80.66 101.94,75.96 101.94,70.44 C101.94,64.92 100.98,60.22 99.06,56.34 C97.14,52.46 94.52,49.32 91.2,46.92 C87.88,44.52 84,42.76 79.56,41.64 C75.12,40.52 70.34,39.96 65.22,39.96 L65.22,39.96 L39.66,39.96 L39.66,120 L65.22,120 Z M66.3,79.32 L65.22,79.32 L65.22,61.56 L66.3,61.56 C69.66,61.56 72.08,62.34 73.56,63.9 C75.04,65.46 75.78,67.64 75.78,70.44 C75.78,73.24 75.04,75.42 73.56,76.98 C72.08,78.54 69.66,79.32 66.3,79.32 L66.3,79.32 Z M148.14,122.04 C153.9,122.04 159.34,120.94 164.46,118.74 C169.58,116.54 174.04,113.54 177.84,109.74 C181.64,105.94 184.64,101.48 186.84,96.36 C189.04,91.24 190.14,85.8 190.14,80.04 C190.14,74.28 189.04,68.84 186.84,63.72 C184.64,58.6 181.64,54.14 177.84,50.34 C174.04,46.54 169.58,43.54 164.46,41.34 C159.34,39.14 153.9,38.04 148.14,38.04 C142.38,38.04 136.94,39.14 131.82,41.34 C126.7,43.54 122.24,46.54 118.44,50.34 C114.64,54.14 111.64,58.6 109.44,63.72 C107.24,68.84 106.14,74.28 106.14,80.04 C106.14,85.8 107.24,91.24 109.44,96.36 C111.64,101.48 114.64,105.94 118.44,109.74 C122.24,113.54 126.7,116.54 131.82,118.74 C136.94,120.94 142.38,122.04 148.14,122.04 Z M148.14,96.84 C145.82,96.84 143.64,96.4 141.6,95.52 C139.56,94.64 137.78,93.44 136.26,91.92 C134.74,90.4 133.54,88.62 132.66,86.58 C131.78,84.54 131.34,82.36 131.34,80.04 C131.34,77.72 131.78,75.54 132.66,73.5 C133.54,71.46 134.74,69.68 136.26,68.16 C137.78,66.64 139.56,65.44 141.6,64.56 C143.64,63.68 145.82,63.24 148.14,63.24 C150.46,63.24 152.64,63.68 154.68,64.56 C156.72,65.44 158.5,66.64 160.02,68.16 C161.54,69.68 162.74,71.46 163.62,73.5 C164.5,75.54 164.94,77.72 164.94,80.04 C164.94,82.36 164.5,84.54 163.62,86.58 C162.74,88.62 161.54,90.4 160.02,91.92 C158.5,93.44 156.72,94.64 154.68,95.52 C152.64,96.4 150.46,96.84 148.14,96.84 Z M238.14,122.04 C242.78,122.04 246.9,121.56 250.5,120.6 C254.1,119.64 257.18,118.6 259.74,117.48 C262.7,116.12 265.26,114.56 267.42,112.8 L267.42,112.8 L254.82,90.6 C253.62,91.8 252.22,92.84 250.62,93.72 C249.26,94.52 247.58,95.24 245.58,95.88 C243.58,96.52 241.3,96.84 238.74,96.84 C236.18,96.84 233.82,96.4 231.66,95.52 C229.5,94.64 227.62,93.44 226.02,91.92 C224.42,90.4 223.16,88.62 222.24,86.58 C221.32,84.54 220.86,82.36 220.86,80.04 C220.86,77.72 221.3,75.54 222.18,73.5 C223.06,71.46 224.28,69.68 225.84,68.16 C227.4,66.64 229.22,65.44 231.3,64.56 C233.38,63.68 235.66,63.24 238.14,63.24 C240.54,63.24 242.68,63.54 244.56,64.14 C246.44,64.74 248.06,65.36 249.42,66 C250.94,66.88 252.34,67.8 253.62,68.76 L253.62,68.76 L266.22,46.56 C264.06,45.04 261.5,43.64 258.54,42.36 C255.98,41.24 252.92,40.24 249.36,39.36 C245.8,38.48 241.74,38.04 237.18,38.04 C231.42,38.04 225.98,39.02 220.86,40.98 C215.74,42.94 211.26,45.76 207.42,49.44 C203.58,53.12 200.54,57.54 198.3,62.7 C196.06,67.86 194.94,73.64 194.94,80.04 C194.94,86.28 196.02,91.98 198.18,97.14 C200.34,102.3 203.34,106.72 207.18,110.4 C211.02,114.08 215.58,116.94 220.86,118.98 C226.14,121.02 231.9,122.04 238.14,122.04 Z M296.34,120 L296.34,95.28 L313.38,120 L344.22,120 L314.58,76.56 L342.78,39.96 L311.46,39.96 L296.34,58.44 L296.34,39.96 L270.42,39.96 L270.42,120 L296.34,120 Z M394.62,120 L394.62,99 L372.18,99 L372.18,89.76 L393.42,89.76 L393.42,69.84 L372.18,69.84 L372.18,60.96 L393.78,60.96 L393.78,39.96 L346.62,39.96 L346.62,120 L394.62,120 Z M438.78,120 L438.78,60.96 L453.54,60.96 L453.54,39.96 L397.62,39.96 L397.62,60.96 L412.38,60.96 L412.38,120 L438.78,120 Z" id="Pocket" fill="#FFFFFF" fill-rule="nonzero"></path>
    </g>
</svg>