<svg clip-rule="evenodd" fill-rule="evenodd" stroke-linejoin="round" stroke-miterlimit="2" viewBox="0 0 369 55" xmlns="http://www.w3.org/2000/svg"><g fill="#1a1a18"><path d="m0 5.525h22.66v5.82h-22.66z"/><path d="m22.66 11.345h28.34v42.5h-28.34z"/><path d="m51.01.005h45.35v11.34h-45.35z"/><g fill-rule="nonzero"><path d="m111.559 53.775c-1.715.083-3.39-.551-4.62-1.75-1.175-1.254-1.793-2.933-1.71-4.65v-19.85h-8.79v-5.62h8.79v-10.54h6.66v10.54h9.5v5.62h-9.5v18.72c0 1.3.6 1.94 1.81 1.94h6.65v5.63z"/><path d="m133.349 34.575h17.65c-.064-2.158-.999-4.201-2.59-5.66-1.707-1.399-3.876-2.112-6.08-2-2.213-.108-4.39.604-6.11 2-1.628 1.463-2.652 3.483-2.87 5.66m9.3 20.1c-2.946.081-5.862-.609-8.46-2-2.399-1.334-4.364-3.33-5.66-5.75-1.39-2.66-2.078-5.63-2-8.63v-.77c-.074-3.022.613-6.014 2-8.7 1.26-2.426 3.195-4.436 5.57-5.79 2.546-1.384 5.413-2.074 8.31-2 2.798-.068 5.563.624 8 2 2.296 1.342 4.168 3.304 5.4 5.66 1.344 2.613 2.012 5.522 1.94 8.46v2.52h-24.5c-.029 2.525.989 4.952 2.81 6.7 1.822 1.664 4.223 2.554 6.69 2.48 2.028.149 4.042-.449 5.66-1.68 1.238-1.076 2.239-2.397 2.94-3.88l5.5 2.85c-.718 1.37-1.598 2.649-2.62 3.81-1.249 1.422-2.782 2.567-4.5 3.36-2.236.986-4.668 1.451-7.11 1.36"/><path d="m165.799 53.775v-31.87h6.52v3.75h1c.446-1.251 1.331-2.3 2.49-2.95 1.309-.659 2.764-.979 4.23-.93h3.82v6h-4.08c-1.925-.079-3.813.555-5.3 1.78-1.38 1.18-2.07 3-2.07 5.46v18.76z"/><path d="m200.768 49.185c2.371.106 4.691-.72 6.46-2.3 1.688-1.647 2.585-3.945 2.46-6.3v-.65h-9.31c-1.508-.073-3.003.322-4.28 1.13-1.074.757-1.684 2.018-1.61 3.33-.048 1.368.581 2.675 1.68 3.49 1.341.935 2.958 1.393 4.59 1.3m-1 5.49c-2.094.037-4.174-.358-6.11-1.16-1.716-.72-3.196-1.909-4.269-3.43-1.085-1.621-1.637-3.541-1.58-5.49-.074-1.945.48-3.863 1.58-5.47 1.103-1.476 2.606-2.607 4.329-3.26 1.991-.761 4.109-1.134 6.24-1.1h9.7v-2.07c.088-1.645-.506-3.255-1.64-4.45-1.12-1.12-2.846-1.68-5.18-1.68-1.883-.13-3.749.448-5.23 1.62-1.227 1.107-2.065 2.58-2.39 4.2l-6.209-2c.513-1.708 1.36-3.299 2.489-4.68 1.246-1.484 2.826-2.653 4.61-3.41 2.163-.921 4.5-1.365 6.85-1.3 4.14 0 7.394 1.057 9.76 3.17 2.367 2.113 3.554 5.113 3.56 9v13.08c0 1.29.6 1.94 1.8 1.94h2.72v5.56h-5c-1.326.071-2.635-.333-3.69-1.14-.946-.768-1.474-1.942-1.42-3.16v-.2h-1c-.461.797-.99 1.553-1.58 2.26-.818.961-1.843 1.724-3 2.23-1.678.692-3.486 1.013-5.3.94"/><path d="m227.198 53.775v-45.25h6.66v17.9h1c.484-.889 1.105-1.695 1.84-2.39.915-.847 1.994-1.497 3.17-1.91 1.61-.538 3.303-.789 5-.74 2.252-.041 4.476.518 6.44 1.62 1.872 1.071 3.404 2.648 4.42 4.55 1.132 2.184 1.689 4.621 1.62 7.08v19.14h-6.66v-18.62c0-2.76-.69-4.79-2.06-6.11-1.559-1.388-3.605-2.107-5.69-2-2.501-.11-4.927.885-6.63 2.72-1.66 1.8-2.49 4.427-2.49 7.88v16.1z"/><path d="m277.818 49.185c2.37.106 4.69-.72 6.46-2.3 1.687-1.647 2.584-3.945 2.46-6.3v-.65h-9.31c-1.506-.071-2.997.324-4.27 1.13-1.072.759-1.68 2.019-1.61 3.33-.049 1.368.58 2.675 1.68 3.49 1.341.935 2.958 1.393 4.59 1.3m-1 5.49c-2.095.037-4.175-.358-6.11-1.16-1.717-.72-3.197-1.909-4.27-3.43-1.085-1.621-1.637-3.541-1.58-5.49-.073-1.945.481-3.863 1.58-5.47 1.104-1.476 2.606-2.607 4.33-3.26 1.991-.761 4.109-1.134 6.24-1.1h9.7v-2.07c.095-1.64-.487-3.25-1.61-4.45-1.12-1.12-2.847-1.68-5.18-1.68-1.884-.13-3.75.448-5.23 1.62-1.227 1.107-2.066 2.58-2.39 4.2l-6.21-2c.514-1.708 1.36-3.299 2.49-4.68 1.22-1.473 2.768-2.641 4.52-3.41 2.163-.921 4.5-1.365 6.85-1.3 4.14 0 7.393 1.057 9.76 3.17 2.366 2.113 3.55 5.113 3.55 9v13.08c0 1.29.61 1.94 1.81 1.94h2.72v5.56h-5c-1.326.07-2.635-.335-3.69-1.14-.947-.768-1.474-1.942-1.42-3.16v-.2h-1c-.452.796-.971 1.552-1.55 2.26-.818.961-1.844 1.724-3 2.23-1.678.692-3.486 1.013-5.3.94"/><path d="m317.097 54.675c-3.556.139-7.072-.807-10.079-2.71-2.739-1.905-4.532-4.897-4.92-8.21l6.2-1.49c.241 1.519.841 2.959 1.75 4.2.785 1.018 1.853 1.784 3.07 2.2 1.286.443 2.639.663 3.999.65 1.715.106 3.421-.324 4.88-1.23 1.073-.695 1.718-1.892 1.71-3.17.075-1.183-.558-2.303-1.61-2.85-1.51-.738-3.126-1.237-4.79-1.48l-2.209-.34c-2.015-.348-3.986-.911-5.88-1.68-1.637-.624-3.086-1.657-4.21-3-1.082-1.436-1.63-3.204-1.55-5-.122-2.746 1.141-5.377 3.36-7 2.625-1.772 5.756-2.646 8.92-2.49 3.124-.13 6.212.72 8.829 2.43 2.262 1.55 3.864 3.891 4.49 6.56l-6.2 1.74c-.216-1.648-1.108-3.133-2.46-4.1-1.404-.842-3.023-1.259-4.659-1.2-1.486-.076-2.964.271-4.26 1-.984.561-1.595 1.608-1.6 2.74-.075 1.155.511 2.257 1.51 2.84 1.279.692 2.67 1.152 4.11 1.36l2.259.39c2.136.342 4.235.881 6.27 1.61 1.739.585 3.292 1.62 4.5 3 1.152 1.469 1.735 3.306 1.64 5.17.133 2.911-1.201 5.704-3.55 7.43-2.346 1.753-5.52 2.63-9.52 2.63"/><path d="m337.927 53.775v-45.25h6.66v17.9h1c.487-.889 1.112-1.695 1.85-2.39.913-.845 1.988-1.495 3.16-1.91 1.611-.536 3.303-.787 5-.74 2.273-.056 4.519.504 6.5 1.62 1.875 1.07 3.411 2.647 4.43 4.55 1.115 2.189 1.655 4.625 1.57 7.08v19.14h-6.66v-18.62c0-2.76-.69-4.79-2.07-6.11-1.558-1.39-3.604-2.11-5.69-2-2.489-.091-4.896.915-6.58 2.75-1.66 1.8-2.49 4.427-2.49 7.88v16.1z"/></g></g></svg>